<svg width="305" height="124" viewBox="0 0 305 124" fill="none" xmlns="http://www.w3.org/2000/svg">
<path d="M13.976 83.992C11.3307 83.992 8.81333 83.224 6.424 81.688C4.03467 80.2373 2.24267 77.976 1.048 74.904C0.621333 73.7947 0.322667 72.6 0.152 71.32C0.0666667 70.04 0.024 68.8027 0.024 67.608C0.024 66.4133 0.237333 65.816 0.664 65.816C1.09067 65.816 1.304 66.2 1.304 66.968C1.304 70.8933 2.28533 73.9227 4.248 76.056C6.296 78.104 8.856 79.128 11.928 79.128C15.6827 79.128 19.1813 78.104 22.424 76.056C25.752 74.008 28.7813 71.4907 31.512 68.504C34.2427 65.432 36.6747 62.36 38.808 59.288C37.784 59.8853 36.9307 60.184 36.248 60.184C35.3093 60.184 34.8827 59.8427 34.968 59.16C34.968 58.9893 35.0107 58.776 35.096 58.52C35.2667 58.1787 35.3947 57.9227 35.48 57.752C35.736 57.0693 35.9493 56.344 36.12 55.576C36.376 54.808 36.632 54.0827 36.888 53.4C37.5707 50.6693 38.2533 47.256 38.936 43.16C39.6187 39.064 39.96 34.9253 39.96 30.744C39.96 27.16 39.6187 23.7467 38.936 20.504C38.2533 17.2613 37.016 14.616 35.224 12.568H32.152C30.872 12.568 29.08 12.6533 26.776 12.824C24.5573 12.9947 22.296 13.3787 19.992 13.976C17.688 14.5733 15.768 15.5547 14.232 16.92C12.696 18.2853 12.0133 20.12 12.184 22.424C12.2693 23.1067 12.5253 24.0453 12.952 25.24C13.3787 26.3493 13.6347 27.032 13.72 27.288L12.44 28.312C11.928 27.3733 11.288 26.3067 10.52 25.112C9.752 23.832 9.02667 22.5947 8.344 21.4C7.74667 20.2053 7.40533 19.3093 7.32 18.712C7.23467 17.8587 7.27733 16.7493 7.448 15.384C7.704 14.0187 8.38667 12.824 9.496 11.8C10.776 10.6907 12.5253 9.96533 14.744 9.62399C17.048 9.28266 19.3947 9.112 21.784 9.112C24.088 9.112 26.3067 9.19733 28.44 9.368C30.5733 9.53866 32.3227 9.62399 33.688 9.62399C33.688 9.62399 35.6507 9.62399 39.576 9.62399C43.5867 9.53866 48.4507 9.49599 54.168 9.49599L51.48 12.824C49.0907 12.824 47.128 12.824 45.592 12.824C44.1413 12.7387 42.8187 12.696 41.624 12.696C40.5147 12.6107 39.1493 12.568 37.528 12.568C40.5147 14.616 42.5627 17.5173 43.672 21.272C44.8667 25.0267 45.464 29.0373 45.464 33.304C45.464 36.9733 45.1653 40.6 44.568 44.184C43.9707 47.6827 43.3307 50.6693 42.648 53.144C46.6587 47.5973 50.4987 41.88 54.168 35.992C57.8373 30.104 61.9333 24.5573 66.456 19.352C67.9067 17.7307 69.6133 15.896 71.576 13.848C73.624 11.7147 75.8427 9.83733 78.232 8.216C80.7067 6.59466 83.1813 5.784 85.656 5.784C86.8507 5.784 87.8747 6.04 88.728 6.55199C89.5813 7.064 90.3067 7.96 90.904 9.24C91.3307 10.264 91.544 11.2027 91.544 12.056C91.544 13.4213 91.288 14.6587 90.776 15.768C90.264 16.8773 89.88 17.7307 89.624 18.328C89.5387 18.6693 89.3253 18.84 88.984 18.84C88.6427 18.84 88.5147 18.6693 88.6 18.328C88.7707 17.9013 88.856 17.4747 88.856 17.048C88.856 16.6213 88.856 16.2373 88.856 15.896C88.856 14.36 88.472 12.952 87.704 11.672C86.936 10.392 85.6987 9.752 83.992 9.752C81.6027 9.752 78.9573 10.9467 76.056 13.336C73.1547 15.7253 70.4667 18.328 67.992 21.144C63.5547 26.264 59.7147 31.128 56.472 35.736C53.3147 40.344 50.328 45.0373 47.512 49.816C44.696 54.5093 41.6667 59.672 38.424 65.304C36.632 68.4613 34.5413 71.4907 32.152 74.392C29.848 77.208 27.2027 79.512 24.216 81.304C21.3147 83.096 17.9013 83.992 13.976 83.992ZM68.395 79.384C67.5417 79.384 66.8163 79.2133 66.219 78.872C65.6217 78.5307 65.323 77.8907 65.323 76.952C65.323 75.7573 65.6217 74.3493 66.219 72.728C66.9017 71.1067 67.627 69.4853 68.395 67.864C69.163 66.2427 69.803 64.92 70.315 63.896C71.339 61.9333 72.3203 59.9707 73.259 58.008C74.1977 56.0453 75.0083 54.3813 75.691 53.016C76.3737 51.736 76.715 50.8827 76.715 50.456C76.715 49.7733 76.203 49.7733 75.179 50.456C74.2403 51.1387 73.3443 51.8213 72.491 52.504C70.6137 54.296 68.651 56.4293 66.603 58.904C64.555 61.2933 62.9763 63.2133 61.867 64.664C61.611 65.0053 61.3977 65.176 61.227 65.176C61.0563 65.176 60.971 64.9627 60.971 64.536C60.971 63.8533 61.1843 63.2133 61.611 62.616C62.8057 60.9093 64.2137 59.032 65.835 56.984C67.4563 54.936 69.1203 52.9733 70.827 51.096C72.4483 49.3893 74.1123 47.7253 75.819 46.104C77.5257 44.4827 79.7017 43.672 82.347 43.672C84.139 43.672 85.035 44.3547 85.035 45.72C85.035 46.9147 84.523 48.28 83.499 49.816C82.9017 50.7547 81.963 52.3333 80.683 54.552C79.403 56.7707 78.0803 59.2027 76.715 61.848C75.435 64.408 74.3257 66.7973 73.387 69.016C72.4483 71.2347 71.979 72.856 71.979 73.88C71.979 75.0747 72.5763 75.672 73.771 75.672C74.7097 75.672 75.8617 75.2027 77.227 74.264C78.5923 73.24 80.0003 72.0453 81.451 70.68C84.0963 68.12 86.4857 65.3467 88.619 62.36C90.8377 59.288 92.715 56.344 94.251 53.528C95.8723 50.712 97.1523 48.408 98.091 46.616C98.2617 46.2747 98.4323 45.8907 98.603 45.464C98.859 44.952 99.243 44.6533 99.755 44.568C100.267 44.4827 101.376 44.44 103.083 44.44C104.79 44.44 106.368 44.0987 107.819 43.416H108.075C108.331 43.416 108.459 43.544 108.459 43.8C108.459 44.4827 107.904 44.9947 106.795 45.336C105.771 45.6773 104.576 46.7013 103.211 48.408C101.931 50.1147 100.651 52.2053 99.371 54.68C98.091 57.0693 96.939 59.544 95.915 62.104C94.891 64.664 94.123 67.0107 93.611 69.144C93.099 71.2773 92.971 72.856 93.227 73.88C93.5683 75.0747 94.1657 75.672 95.019 75.672C96.1283 75.672 97.6643 74.9893 99.627 73.624C101.675 72.2587 103.766 70.6373 105.899 68.76C108.032 66.7973 109.782 65.0053 111.147 63.384C111.744 62.7013 112.299 62.0187 112.811 61.336C113.323 60.6533 113.664 60.2267 113.835 60.056C113.92 60.1413 114.006 60.312 114.091 60.568C114.176 60.7387 114.219 60.9093 114.219 61.08C114.134 61.6773 113.92 62.2747 113.579 62.872C113.238 63.384 112.854 63.8533 112.427 64.28C110.806 66.4133 108.843 68.6747 106.539 71.064C104.32 73.368 101.888 75.3307 99.243 76.952C96.683 78.5733 94.0377 79.384 91.307 79.384C90.4537 79.384 89.4723 79.1707 88.363 78.744C87.339 78.3173 86.827 77.3787 86.827 75.928C86.827 74.8187 87.1257 73.3253 87.723 71.448C88.3203 69.4853 88.9603 67.5653 89.643 65.688C90.411 63.7253 91.051 62.2747 91.563 61.336C90.4537 62.9573 89.0883 64.792 87.467 66.84C85.931 68.8027 84.3523 70.552 82.731 72.088C80.5977 74.136 78.2937 75.8853 75.819 77.336C73.4297 78.7013 70.955 79.384 68.395 79.384ZM112.245 80.92C111.904 80.92 111.904 80.536 112.245 79.768C112.672 79 113.056 78.1467 113.397 77.208C113.824 76.2693 114.25 75.2453 114.677 74.136C115.53 72.088 116.469 69.784 117.493 67.224C118.517 64.664 119.498 62.1893 120.437 59.8C121.376 57.3253 122.186 55.2347 122.869 53.528C123.637 51.736 124.149 50.584 124.405 50.072C123.21 51.352 121.76 52.9733 120.053 54.936C118.432 56.8133 116.896 58.648 115.445 60.44C113.994 62.232 112.885 63.64 112.117 64.664C111.861 65.0053 111.648 65.176 111.477 65.176C111.306 65.176 111.221 64.9627 111.221 64.536C111.221 63.8533 111.434 63.2133 111.861 62.616C113.482 60.568 115.274 58.264 117.237 55.704C119.285 53.144 121.12 50.7973 122.741 48.664C124.362 46.4453 125.386 44.9947 125.813 44.312C126.752 44.1413 128.117 43.8853 129.909 43.544C131.786 43.2027 133.066 42.7333 133.749 42.136C134.005 41.88 134.261 41.752 134.517 41.752C134.688 41.752 134.773 41.9227 134.773 42.264C134.858 42.52 134.773 42.8187 134.517 43.16C134.005 43.7573 133.109 45.1653 131.829 47.384C130.634 49.5173 129.312 51.9067 127.861 54.552C126.496 57.1973 125.216 59.5867 124.021 61.72C125.045 60.3547 126.154 59.032 127.349 57.752C128.544 56.472 129.696 55.2347 130.805 54.04C131.829 53.016 133.237 51.736 135.029 50.2C136.821 48.664 138.698 47.256 140.661 45.976C142.624 44.696 144.33 43.9707 145.781 43.8C146.122 43.7147 146.421 43.672 146.677 43.672C147.018 43.672 147.274 43.672 147.445 43.672C149.322 43.672 150.261 44.3547 150.261 45.72C150.261 46.744 149.706 48.1093 148.597 49.816C148 50.7547 147.061 52.3333 145.781 54.552C144.586 56.6853 143.349 59.032 142.069 61.592C140.874 64.0667 139.808 66.4133 138.869 68.632C138.016 70.7653 137.589 72.344 137.589 73.368C137.589 74.5627 138.186 75.16 139.381 75.16C140.832 75.16 142.41 74.4347 144.117 72.984C145.909 71.5333 147.829 69.6987 149.877 67.48C151.925 65.176 153.973 62.744 156.021 60.184C156.192 60.3547 156.277 60.6533 156.277 61.08C156.277 61.6773 156.064 62.2747 155.637 62.872C155.296 63.384 154.954 63.8533 154.613 64.28C153.76 65.3893 152.608 66.7973 151.157 68.504C149.792 70.1253 148.384 71.7467 146.933 73.368C145.482 74.904 144.16 76.1413 142.965 77.08C142.112 77.6773 141.002 78.3173 139.637 79C138.272 79.6827 136.906 80.024 135.541 80.024C134.005 80.024 132.938 79.64 132.341 78.872C131.744 78.0187 131.445 76.9947 131.445 75.8C131.445 74.4347 131.701 72.984 132.213 71.448C132.725 69.912 133.28 68.4613 133.877 67.096C134.56 65.6453 135.072 64.5787 135.413 63.896C136.949 60.9093 138.357 58.0933 139.637 55.448C140.917 52.8027 141.813 50.9253 142.325 49.816C142.581 49.304 142.709 48.8773 142.709 48.536C142.709 47.9387 142.24 47.896 141.301 48.408C140.362 48.92 139.21 49.688 137.845 50.712C136.565 51.736 135.37 52.76 134.261 53.784C133.152 54.7227 132.426 55.3627 132.085 55.704C128.928 59.032 126.154 62.744 123.765 66.84C121.461 70.8507 119.498 74.9893 117.877 79.256C116.768 79.3413 115.658 79.64 114.549 80.152C113.44 80.664 112.672 80.92 112.245 80.92ZM164.351 83.992C161.706 83.992 159.188 83.224 156.799 81.688C154.41 80.2373 152.618 77.976 151.423 74.904C150.996 73.7947 150.698 72.6 150.527 71.32C150.442 70.04 150.399 68.8027 150.399 67.608C150.399 66.4133 150.612 65.816 151.039 65.816C151.466 65.816 151.679 66.2 151.679 66.968C151.679 70.8933 152.66 73.9227 154.623 76.056C156.671 78.104 159.231 79.128 162.303 79.128C166.058 79.128 169.556 78.104 172.799 76.056C176.127 74.008 179.156 71.4907 181.887 68.504C184.618 65.432 187.05 62.36 189.183 59.288C188.159 59.8853 187.306 60.184 186.623 60.184C185.684 60.184 185.258 59.8427 185.343 59.16C185.343 58.9893 185.386 58.776 185.471 58.52C185.642 58.1787 185.77 57.9227 185.855 57.752C186.111 57.0693 186.324 56.344 186.495 55.576C186.751 54.808 187.007 54.0827 187.263 53.4C187.946 50.6693 188.628 47.256 189.311 43.16C189.994 39.064 190.335 34.9253 190.335 30.744C190.335 27.16 189.994 23.7467 189.311 20.504C188.628 17.2613 187.391 14.616 185.599 12.568H182.527C181.247 12.568 179.455 12.6533 177.151 12.824C174.932 12.9947 172.671 13.3787 170.367 13.976C168.063 14.5733 166.143 15.5547 164.607 16.92C163.071 18.2853 162.388 20.12 162.559 22.424C162.644 23.1067 162.9 24.0453 163.327 25.24C163.754 26.3493 164.01 27.032 164.095 27.288L162.815 28.312C162.303 27.3733 161.663 26.3067 160.895 25.112C160.127 23.832 159.402 22.5947 158.719 21.4C158.122 20.2053 157.78 19.3093 157.695 18.712C157.61 17.8587 157.652 16.7493 157.823 15.384C158.079 14.0187 158.762 12.824 159.871 11.8C161.151 10.6907 162.9 9.96533 165.119 9.62399C167.423 9.28266 169.77 9.112 172.159 9.112C174.463 9.112 176.682 9.19733 178.815 9.368C180.948 9.53866 182.698 9.62399 184.063 9.62399C184.063 9.62399 186.026 9.62399 189.951 9.62399C193.962 9.53866 198.826 9.49599 204.543 9.49599L201.855 12.824C199.466 12.824 197.503 12.824 195.967 12.824C194.516 12.7387 193.194 12.696 191.999 12.696C190.89 12.6107 189.524 12.568 187.903 12.568C190.89 14.616 192.938 17.5173 194.047 21.272C195.242 25.0267 195.839 29.0373 195.839 33.304C195.839 36.9733 195.54 40.6 194.943 44.184C194.346 47.6827 193.706 50.6693 193.023 53.144C197.034 47.5973 200.874 41.88 204.543 35.992C208.212 30.104 212.308 24.5573 216.831 19.352C218.282 17.7307 219.988 15.896 221.951 13.848C223.999 11.7147 226.218 9.83733 228.607 8.216C231.082 6.59466 233.556 5.784 236.031 5.784C237.226 5.784 238.25 6.04 239.103 6.55199C239.956 7.064 240.682 7.96 241.279 9.24C241.706 10.264 241.919 11.2027 241.919 12.056C241.919 13.4213 241.663 14.6587 241.151 15.768C240.639 16.8773 240.255 17.7307 239.999 18.328C239.914 18.6693 239.7 18.84 239.359 18.84C239.018 18.84 238.89 18.6693 238.975 18.328C239.146 17.9013 239.231 17.4747 239.231 17.048C239.231 16.6213 239.231 16.2373 239.231 15.896C239.231 14.36 238.847 12.952 238.079 11.672C237.311 10.392 236.074 9.752 234.367 9.752C231.978 9.752 229.332 10.9467 226.431 13.336C223.53 15.7253 220.842 18.328 218.367 21.144C213.93 26.264 210.09 31.128 206.847 35.736C203.69 40.344 200.703 45.0373 197.887 49.816C195.071 54.5093 192.042 59.672 188.799 65.304C187.007 68.4613 184.916 71.4907 182.527 74.392C180.223 77.208 177.578 79.512 174.591 81.304C171.69 83.096 168.276 83.992 164.351 83.992ZM218.898 80.024C215.399 80.024 212.967 79.3413 211.602 77.976C210.237 76.6107 209.554 74.9467 209.554 72.984C209.554 70.5093 210.194 67.864 211.474 65.048C212.839 62.232 214.119 59.8427 215.314 57.88C216.679 55.832 218.514 53.6987 220.818 51.48C223.122 49.2613 225.639 47.384 228.37 45.848C231.101 44.312 233.746 43.544 236.306 43.544C238.525 43.544 240.061 44.0987 240.914 45.208C241.767 46.232 242.194 47.4693 242.194 48.92C242.194 51.5653 241.383 53.7413 239.762 55.448C238.226 57.1547 236.306 58.5627 234.002 59.672C231.698 60.696 229.479 61.5493 227.346 62.232C226.066 62.5733 224.573 62.9147 222.866 63.256C221.159 63.5973 219.538 63.768 218.002 63.768C217.405 65.304 216.935 66.7973 216.594 68.248C216.253 69.6987 216.082 71.0213 216.082 72.216C216.082 73.6667 216.423 74.8613 217.106 75.8C217.874 76.7387 219.111 77.208 220.818 77.208C221.501 77.208 222.311 77.1227 223.25 76.952C224.189 76.7813 225.213 76.5253 226.322 76.184C228.882 75.3307 231.399 73.9653 233.874 72.088C236.349 70.2107 238.61 68.2053 240.658 66.072C242.791 63.8533 244.413 62.0187 245.522 60.568C245.778 60.824 245.906 61.1227 245.906 61.464C245.906 61.8907 245.607 62.5733 245.01 63.512C243.303 65.9013 241.085 68.376 238.354 70.936C235.623 73.496 232.594 75.672 229.266 77.464C225.938 79.1707 222.482 80.024 218.898 80.024ZM219.026 61.208C220.135 61.2933 221.373 61.2933 222.738 61.208C224.189 61.0373 225.597 60.7387 226.962 60.312C230.461 59.288 232.978 57.6667 234.514 55.448C236.135 53.144 236.946 51.096 236.946 49.304C236.946 48.28 236.733 47.4267 236.306 46.744C235.879 46.0613 235.197 45.72 234.258 45.72C231.783 45.72 229.565 46.6587 227.602 48.536C225.639 50.328 223.933 52.4187 222.482 54.808C221.031 57.1973 219.879 59.3307 219.026 61.208ZM251.925 79.256C249.365 79.256 247.616 78.6587 246.677 77.464C245.738 76.184 245.269 74.648 245.269 72.856C245.269 70.4667 245.781 67.9067 246.805 65.176C247.914 62.4453 248.81 60.312 249.493 58.776C248.384 59.9707 247.317 61.1227 246.293 62.232C245.269 63.3413 244.544 64.152 244.117 64.664C243.861 65.0053 243.648 65.176 243.477 65.176C243.306 65.176 243.221 64.9627 243.221 64.536C243.221 63.8533 243.434 63.2133 243.861 62.616C245.056 61.08 246.421 59.4587 247.957 57.752C249.493 56.0453 250.986 54.2533 252.437 52.376C254.144 49.2187 256.021 45.5493 258.069 41.368C260.202 37.1013 262.378 32.7493 264.597 28.312C266.901 23.7893 269.12 19.6507 271.253 15.896C273.472 12.056 275.434 8.984 277.141 6.68C278.592 6.08266 279.957 5.31466 281.237 4.376C282.602 3.43733 283.925 2.58399 285.205 1.81599C286.57 0.962662 287.978 0.535995 289.429 0.535995C290.368 0.535995 291.05 0.791995 291.477 1.30399C291.989 1.816 292.33 2.41333 292.501 3.09599C292.586 3.35199 292.629 3.82133 292.629 4.504C292.629 6.46666 291.946 8.856 290.581 11.672C289.301 14.488 287.765 17.2613 285.973 19.992C284.266 22.6373 282.773 24.8133 281.493 26.52C278.08 31.2987 274.581 35.6507 270.997 39.576C267.413 43.416 264.17 46.6587 261.269 49.304C258.453 51.864 256.405 53.7413 255.125 54.936C254.528 56.0453 253.802 57.5387 252.949 59.416C252.181 61.208 251.498 63.128 250.901 65.176C250.304 67.1387 250.005 68.9733 250.005 70.68C250.005 72.1307 250.346 73.368 251.029 74.392C251.712 75.3307 252.864 75.8 254.485 75.8C254.741 75.8 254.997 75.8 255.253 75.8C255.509 75.8 255.808 75.7573 256.149 75.672C257.6 75.416 259.178 74.6053 260.885 73.24C262.592 71.8747 264.298 70.296 266.005 68.504C267.712 66.712 269.248 65.0053 270.613 63.384C271.21 62.7013 271.765 62.0613 272.277 61.464C272.789 60.7813 273.13 60.312 273.301 60.056C273.898 60.6533 273.856 61.4213 273.173 62.36C272.576 63.2133 272.064 63.9387 271.637 64.536C271.04 65.304 270.186 66.3707 269.077 67.736C267.968 69.016 266.688 70.424 265.237 71.96C263.616 73.5813 261.61 75.2027 259.221 76.824C256.832 78.4453 254.4 79.256 251.925 79.256ZM257.301 49.816C259.946 47.5973 263.274 44.44 267.285 40.344C271.381 36.1627 275.392 31.128 279.317 25.24C279.744 24.5573 280.426 23.4053 281.365 21.784C282.389 20.1627 283.413 18.328 284.437 16.28C285.546 14.1467 286.485 12.0987 287.253 10.136C288.021 8.08799 288.405 6.33866 288.405 4.88799C288.405 3.52266 288.021 2.84 287.253 2.84C286.314 2.84 285.077 3.65066 283.541 5.272C281.749 7.14933 279.701 9.92266 277.397 13.592C275.178 17.176 272.832 21.1867 270.357 25.624C267.882 30.0613 265.493 34.4133 263.189 38.68C260.97 42.9467 259.008 46.6587 257.301 49.816ZM230.276 123.8C227.033 123.8 223.919 123.032 220.932 121.496C217.86 120.045 215.599 117.784 214.148 114.712C213.636 113.603 213.295 112.408 213.124 111.128C212.953 109.933 212.868 108.739 212.868 107.544V106.136C212.868 105.453 212.953 104.813 213.124 104.216C213.295 103.704 213.721 103.448 214.404 103.448C214.66 103.448 214.788 103.533 214.788 103.704C214.788 104.216 214.745 104.728 214.66 105.24C214.489 105.752 214.404 106.307 214.404 106.904C214.404 110.829 215.684 113.816 218.244 115.864C220.719 117.912 223.833 118.936 227.588 118.936C229.124 118.936 230.703 118.765 232.324 118.424C233.945 118.083 235.481 117.613 236.932 117.016C242.308 114.712 247.001 111.469 251.012 107.288C255.023 103.107 258.521 98.3707 261.508 93.08C264.495 87.7893 267.14 82.3707 269.444 76.824C271.919 70.7653 274.265 64.792 276.484 58.904C278.788 52.9307 281.348 47.0853 284.164 41.368C286.809 36.0773 289.625 32.1093 292.612 29.464C295.599 26.8187 298.585 25.496 301.572 25.496C302.34 25.496 303.065 25.7093 303.748 26.136C304.516 26.5627 304.857 27.2453 304.772 28.184L304.516 31.768C304.516 32.024 304.345 32.152 304.004 32.152C304.004 32.152 303.961 32.152 303.876 32.152C303.876 32.152 303.876 32.1093 303.876 32.024C303.876 31 303.492 30.3173 302.724 29.976C302.041 29.5493 301.359 29.336 300.676 29.336C297.775 29.336 295.172 30.36 292.868 32.408C290.649 34.3707 288.687 36.9307 286.98 40.088C285.273 43.2453 283.823 46.5733 282.628 50.072C281.433 53.4853 280.452 56.6427 279.684 59.544C280.281 59.032 281.348 57.9653 282.884 56.344C284.505 54.7227 286.383 52.9733 288.516 51.096C290.649 49.2187 292.825 47.5973 295.044 46.232C297.263 44.8667 299.311 44.184 301.188 44.184C302.297 44.184 302.937 44.696 303.108 45.72C303.364 46.6587 303.407 47.5547 303.236 48.408C302.809 51.5653 301.743 54.9787 300.036 58.648C298.329 62.3173 296.111 65.816 293.38 69.144C290.735 72.3867 287.748 75.032 284.42 77.08C281.177 79.128 277.764 80.152 274.18 80.152C273.753 80.152 273.156 80.1093 272.388 80.024C271.705 80.024 271.279 79.9387 271.108 79.768C269.316 85.144 267.012 90.648 264.196 96.28C261.38 101.912 258.009 106.989 254.084 111.512C250.073 116.12 245.337 119.576 239.876 121.88C236.975 123.16 233.775 123.8 230.276 123.8ZM276.1 77.976C277.38 77.976 278.831 77.464 280.452 76.44C282.159 75.3307 283.439 74.3493 284.292 73.496C285.316 72.5573 286.511 71.1067 287.876 69.144C289.327 67.096 290.735 64.8773 292.1 62.488C293.551 60.0987 294.745 57.7947 295.684 55.576C296.623 53.3573 297.092 51.5653 297.092 50.2C297.092 49.7733 297.007 49.3893 296.836 49.048C296.665 48.7067 296.367 48.536 295.94 48.536C295.172 48.536 294.148 49.0053 292.868 49.944C291.588 50.8827 290.223 52.0347 288.772 53.4C287.407 54.68 286.127 55.96 284.932 57.24C283.737 58.4347 282.884 59.3307 282.372 59.928C281.519 60.952 280.367 62.4453 278.916 64.408C277.465 66.3707 276.185 68.376 275.076 70.424C273.967 72.3867 273.412 74.0507 273.412 75.416C273.412 77.1227 274.308 77.976 276.1 77.976Z" fill="white"/>
</svg>
